<?xml version="1.0" encoding="UTF-8"?><svg id="_图层_1" xmlns="http://www.w3.org/2000/svg" viewBox="0 0 100 34"><defs><style>.cls-1{fill:#fff;}.cls-2{fill:#86aa8b;}</style></defs><path class="cls-1" d="M17.33,32.1c-8.32,0-15.1-6.77-15.1-15.1S9.01,1.9,17.33,1.9H82.67c8.33,0,15.1,6.77,15.1,15.1s-6.77,15.1-15.1,15.1H17.33Z"/><path class="cls-2" d="M82.67,3.64c7.37,0,13.36,6,13.36,13.37s-6,13.36-13.36,13.36H17.33c-7.37,0-13.36-6-13.36-13.37S9.96,3.64,17.33,3.64H82.67m0-3.47H17.33C8.04,.17,.5,7.71,.5,17H.5c0,9.29,7.54,16.83,16.83,16.83H82.67c9.29,0,16.83-7.54,16.83-16.83h0C99.5,7.71,91.96,.17,82.67,.17h0Z"/></svg>