<?xml version="1.0" encoding="UTF-8"?>
<svg id="_图层_1" xmlns="http://www.w3.org/2000/svg" viewBox="0 0 563 329">
    <defs>
        <style>.cls-1{fill:#346246;}.cls-2{fill:#6e996c;}</style>
    </defs>
    <path class="cls-1" d="M518,7c20.95,0,38,17.05,38,38v239c0,20.95-17.05,38-38,38H45c-20.95,0-38-17.05-38-38V45C7,24.05,24.05,7,45,7h473m0-7H45C20.25,0,0,20.25,0,45v239c0,24.75,20.25,45,45,45h473c24.75,0,45-20.25,45-45V45c0-24.75-20.25-45-45-45h0Z"/>
    <rect class="cls-2" x="14.88" y="14" width="533.23" height="302" rx="30" ry="30"/>
</svg>